<svg version="1.2" xmlns="http://www.w3.org/2000/svg" viewBox="0 0 773 773" width="773" height="773"><style></style><path fill-rule="evenodd" d="m452.4 19.5c0.7 1.9 1.5 3.5 1.9 3.5 0.3 0 1.5-1.5 2.7-3.2l2.2-3.2 1.4 8.4 3.3-2.5c1.8-1.4 3.5-2.5 3.8-2.5 0.3 0 0.6 2.7 0.6 6 0 9.4-4 15.7-12 19l-3.2 1.3 0.4 15.6c0.5 20.7 4.4 37.4 6.1 26.8 1.4-8.7 8.4-17.7 18.5-23.7 6.7-3.9 12.2-5.9 12.2-4.5 0 0.5-1.1 2.2-2.4 3.9-1.3 1.7-3.3 5.1-4.6 7.6-1.2 2.5-3.9 6.6-5.9 9.1-2.1 2.5-5.1 7-6.9 10-1.7 3.1-4.2 6.6-5.6 7.9-1.4 1.4-2.6 2.8-2.6 3.3 0 0.5 4.3 8.7 9.5 18.3 8.7 16 15.2 29.5 17 35.2 0.4 1.7 1.4 2.3 3.4 2.3 6.3 0 25.2 16.8 33.9 30.3 6.9 10.6 9.4 17.4 9.9 27.2l0.4 8-2.1-3.8c-1.2-2.1-3.8-5.5-5.9-7.5-13.5-13.2-20.8-22.2-25.6-31.6-5.3-10.3-12.2-19.4-11.1-14.6 1.5 6.2 1.8 21.2 0.7 29.1-1.8 12-4.9 20.8-15.6 43-13.5 28.1-18.9 45.7-20.2 65.4l-0.6 8.9 12.9-11.5c18.2-16.4 21.8-21 31.5-40.2 3.4-6.6 7.2-13.7 8.6-15.9 2.1-3.3 2.3-4.4 1.4-5.9-1.8-2.9-1.4-10.4 0.8-13 2.7-3.4 8.6-3.2 11.7 0.5 2.7 3.1 3 6.6 1 10.6-1.5 2.8-5.3 5.1-8.5 5.1-1.8 0-7.9 9.7-12.1 19.2-6.6 15-16.1 28-30.3 41.5l-8.6 8.1 5.9 2.1c14.6 5.4 24.4 18.5 24.2 32.4-0.2 9.3-5.1 12.3-11.9 7.1-2.3-1.8-4.9-5.7-8.4-13.2-2.8-5.9-6.2-12.2-7.6-14.1-2.3-3-7.5-6.1-10.3-6.1-0.6 0-1 5.4-1 15 0 26.1-6.1 67.2-12.4 82.9-1.9 4.6-3.1 8.2-2.7 8 0.3-0.2 3.4-1.4 6.8-2.8l6.1-2.4 1.2-6.1c2-10.6 3-13.3 5.4-14.9 4.7-3 4.9-2.7 4.8 7.4 0 5.2 0.2 9.8 0.4 10.1 0.5 0.8 20.1-3.3 26-5.5 7.9-2.8 19.4-10.2 19.4-12.5 0-0.4-1.9-0.8-4.2-0.8-2.4-0.1-7.2-1.3-10.7-2.8-7-2.9-11.3-3.3-23.2-2-7.1 0.7-7.8 0.6-9.9-1.5-1.7-1.7-2.1-2.9-1.6-5.4 1.3-6.2 7-9.7 15.8-9.7 6.7 0 22.4 3.2 26.7 5.5 1.8 0.9 3.4 1.5 3.6 1.3 0.1-0.2-0.3-3.7-1.1-7.8-1.8-9.9-1.7-14.4 0.2-25.7l1.6-9.5-2.7-2.8c-2.2-2.3-2.6-3.4-2-5.9 0.6-3.1 4.6-7.1 7-7.1 0.7 0 2.4 0.9 3.9 2.1 4.7 3.7 3 11-2.8 12.5-2.1 0.5-2.4 1.4-3.2 9.2-2 19.9 0.1 34.5 5.9 41.1l2.1 2.2 2.8-4.7c3.5-6.1 7.8-19.1 11.8-35.9 5.3-22.1 8.9-29.7 18.2-37.9l4.9-4.4-2.6-2.1c-6.1-4.8-16.8-5.2-30.6-1.1-7.7 2.3-14.9 2.2-14.9-0.2 0-2.3 5.3-8 10.2-10.8 9.6-5.4 23-6 31.9-1.5 3.3 1.7 7.3 6.7 8.7 10.9l0.9 2.8 8.1-6.6c9.9-8.1 16.6-16.1 20.5-24.2 3.4-7.2 5.2-17.1 4.3-23.2l-0.6-4.3-3.7 0.7c-5.6 1-7.8 2.7-18.7 14.1-9.1 9.4-10.5 10.5-15.5 11.8-3 0.8-5.5 1.3-5.6 1.2-0.1-0.1 0.7-4.2 1.8-9.1 2.4-10.3 5-13.9 15.1-20.4 8.7-5.7 14-7 20.3-4.9 2.7 0.9 5.1 1.4 5.3 1.1 0.8-0.8-3.9-15.7-7-22.2-3.1-6.5-12.6-19.3-14.4-19.3-0.6 0-1.5 0.8-2.2 1.8-1.4 2.4-7.3 5.2-10.6 5.2-1.4 0-4.7-1.8-7.7-4.1-4.5-3.5-5.1-4.4-4.8-7.2 0.2-2.6 0.8-3.3 2.9-3.5 2-0.2 3.2 0.5 5.3 3.2 2.2 3 3.3 3.6 6.4 3.6 5.1 0 7.3-1.5 3.6-2.4-3.9-1-5.4-2.4-5.4-5.1 0-5.1 6.4-5.6 9.5-0.8 0.9 1.4 1.9 2.2 2.2 1.9 0.3-0.3-0.2-1.7-1.1-3.2-1.9-2.8-8.7-6.3-12.3-6.4-3.1 0-2.9-2.4 0.3-4.9 3.8-3 6-3.4 9.3-1.7 6.6 3.4 11.5 15 8.1 19.1-1 1.2-0.4 2.4 3.5 6.7 5.7 6.5 12.7 20.6 15.5 31.4 3.1 11.8 2.7 11.1 5.6 8.4 2.1-1.9 3.6-2.4 8.3-2.4 4.8 0 6.7 0.6 11.4 3.5 6.6 4 16.7 13.3 19.6 18.1 2.5 4.1 2.7 8.6 0.4 11.1-3.8 4.2-10 0.9-17.7-9.5-6.7-9.1-11.6-13.4-16-14.2-6.5-1.3-7-0.7-7.7 7.2-1.7 18.4-11.1 35.6-25.3 46-3.4 2.5-6.3 4.7-6.5 4.9-0.2 0.2 1.1 2 2.9 4.1 7.1 8.1 11.4 21.9 10.8 35.4-0.3 10-2.2 13.7-7.6 15.3-7.2 2.1-10.4-4.6-9-18.9 1.9-20.5 2.1-24.2 0.9-27.8-0.7-2-1.7-3.9-2.2-4.2-1.6-1.1-10.1 6.8-14.1 13-4.1 6.1-4.7 7.9-12.4 35.2-2.5 8.9-6 19.8-7.9 24.2l-3.4 8.2h5.3c7 0 14.6-1.7 21.5-4.6 3-1.5 7.1-2.8 9.2-3.1 3.3-0.6 3.8-1 4.4-4 0.8-4.7 4.1-6.7 9.4-5.8 7 1.1 9.9 7 6.6 13.4-2.9 5.7-11.9 6.5-15.2 1.4-2.1-3.3-5-2.8-16.3 2.1-4.5 2-9.3 3.6-10.6 3.6-1.4 0-2.5 0.3-2.5 0.6 0 0.4 2.4 3.2 5.3 6.4 8 8.5 13.5 17.3 15.9 25.1 3 9.9 1.2 14.9-5.5 14.9-4.6 0-7.2-3.1-10.6-13.1-1.5-4.7-3.6-10-4.6-11.9-2-4-9.5-13.9-11.9-15.9-1.4-1.2-1.6-0.8-1.6 3.4 0 3.9-0.9 6.3-4.6 12.7-5.4 9.2-6.4 14-4 20.3l1.7 4.4 13.4 0.6 0.3 3.7 0.3 3.8h-8.7l0.4 3.6c0.2 1.9-0.3 5.4-1.1 7.7-0.9 2.3-2.1 7.1-2.6 10.6-0.6 3.5-1.3 6.6-1.6 6.9-1.1 1.1-0.4-8.5 1-13.8 1.6-5.8 1.9-10.8 0.9-13.4-0.5-1.3-2.2-1.6-8.5-1.6h-7.8l-1.1 4.1c-1.4 5.3-3.1 8.9-4.1 8.9-0.5 0-0.2-1.9 0.6-4.1 0.8-2.3 1.5-5.2 1.5-6.5v-2.4h-13.5c-7.4 0-13.5 0.2-13.5 0.5 0 0.3 1.5 2.6 3.4 5.2 5.1 7.2 9.3 16.3 11 23.7 2.4 10.1 2.4 10-3.3 9.3-2.7-0.3-6.9-1.5-9.2-2.6-2.4-1.2-4.4-2.1-4.7-2.1-1 0 0.5 72.9 1.6 76.2 2 5.9 5.4 10.3 10.2 12.7 3.8 2 5.6 2.3 12 1.9 15.7-0.8 25-8.3 28.1-22.7 1.1-5 1.1-5 5.1-5h4l-0.7 4.2c-2.1 13.7-7.7 21.8-18.9 27.4-6.4 3.1-8.7 3.7-16.3 4.1-10.2 0.6-17.4-0.6-24.7-4.3-12.4-6.2-20.5-19.5-20.7-33.9-0.1-3.3-0.5-6.9-1-7.8-1.4-2.6-8.5-6.4-16.6-8.7-11.4-3.4-21.6-12.7-28.2-25.9-1.7-3.4-5-8.1-7.3-10.3-4.5-4.4-6.8-4.5-2.6-0.1 3.2 3.4 5.5 7.9 7.5 14.6 2.5 8.5 13 27.7 17.4 31.7 4 3.8 4.7 5 2.9 5-2.2 0-8.3-6.8-11.7-13-2-3.6-5-8.6-6.5-11-1.5-2.5-2.8-5.7-2.8-7.1 0-4.4-2.6-11.8-5.5-15.6-1.5-1.9-2.9-3.3-3.2-3.1-1 1 18.9 59.8 21.7 64.2 3.7 5.8 7.5 7.7 17.2 8.3l7.8 0.6v8.7h-92.1v-9l20.8-0.2c16.6-0.2 20.2-0.5 18.2-1.5-2.7-1.2-7.7-6.3-10.2-10.3-0.8-1.4-2.6-6.1-4-10.5-1.4-4.5-5.6-17.6-9.3-29.1-3.7-11.6-7.6-23.8-8.7-27.2l-1.9-6.2-139.3 0.4-10.4 31c-11 33.1-12.1 39.1-8.8 45.6 2.9 5.6 8.2 7.3 24.3 7.8l14.3 0.5-0.6 8.2h-85l-0.3-4.3-0.3-4.2h5.4c11.1 0 19.3-5.3 24.7-16 1.5-3 4.8-12.1 7.4-20.1 2.6-8 7.5-23.3 11-34 3.6-10.7 11.9-36.4 18.6-57 6.7-20.6 13.5-41.5 15.1-46.4 1.6-4.9 2.6-9.3 2.1-9.6-8-5.6-10.3-7.8-11.4-11.2-0.9-3.2-0.8-4.2 0.6-6.4 2.1-3.2 3.4-3.2 10.6 0.5l5.9 3 4.2-12.8c2.2-7 7.4-22.8 11.4-35.2 4.1-12.4 7.6-23.4 7.8-24.4 0.2-1.5-1.1-2.4-7.9-4.7-4.5-1.5-10.9-4.2-14.3-5.9-6.2-3.4-15.1-11.8-15.1-14.4 0-2.8 1.3-4.8 3.8-5.7 4.1-1.6 22.8 3.6 38.9 10.7 0.7 0.3 4.2-8.7 9.3-24.5l8.2-25.2 6.7-0.1h6.7l5.1-7.3 5.1-7.4-3.7-1.1c-4.7-1.4-10.5-7.6-12-12.8-1.9-6.6-2.4-16.9-0.9-17.8 2.5-1.6 8.6 6.8 10.2 14.1 1.7 7.4 6.9 16.4 7.5 12.9 0.8-5.1 1.4-6.6 3.8-9.4 2.6-3.1 5.7-4 6.9-2 1.4 2.1 0.6 8-1.4 11.5-1.2 2-2.1 3.7-1.9 3.8 0.2 0.2 2.9 1.2 6.1 2.4 4.1 1.5 8.1 2.2 13.2 2.2 5.4 0 7.8 0.4 8.9 1.6 2 1.9 2 2.4 0 5.2-2.3 3.4-7.2 5.5-11.1 4.9-3.1-0.5-10.6-5.3-18.9-12.1-1.8-1.5-3.4-2.6-3.6-2.6-0.8 0-8.8 11.7-8.8 12.9 0 0.7 2.5 1.1 6.5 1.1h6.5v6.8c0 3.8 0.7 11 1.5 16.2 2 12.1 10.1 37.1 12 37.1 2.7 0 5.7-7.9 6.2-16.5l0.5-8-3.4-1.5c-2.8-1.3-3.3-2-3.6-5.6-0.6-7.7 7.1-12.1 13-7.4 4.8 3.7 4.2 11.3-1 13.2-2.6 1-2.7 1.3-2.8 9.2-0.1 5.1-0.7 9.5-1.7 12-2.3 5.1-2.2 5.3 1.7 6 4.7 0.9 12 6 14.1 9.9 3.3 6.1-0.1 13.7-6 13.7-1.1 0-4-0.9-6.4-2-2.4-1.1-4.5-1.9-4.7-1.7-0.2 0.2 2.6 9.4 6.2 20.5l6.5 20.2h3.3c12.1 0 32.3 14.8 42 30.9 2.2 3.3 3.9 6.1 4 6.1 0.1 0 0.3-3.5 0.4-7.8 0.1-4.2 0.9-11 1.7-15 2-9.3 2-16.4 0-23.2-2.1-7.2-9.2-22.2-11-23.6-2.6-2-14.6-18.7-17.4-24.4-1.5-3-3.4-7.8-4.2-10.5-1.6-5.9-1.9-29.8-0.4-30.5 1.5-0.7 10.1 12.7 13.1 20.5 1.5 3.8 3 7.4 3.4 7.8 0.4 0.4 1-3.4 1.3-8.5 0.4-5.1 1.8-16.7 3.3-25.8 3.6-21.7 4-50.4 1-61.6-3-11.2-6.1-17.5-8.6-17.5-3.5 0-8-5.3-8-9.4 0-3 0.5-3.8 3.1-5.1 2-1.1 4.1-1.4 6.2-0.9 4.4 0.9 5.5 2 6.3 6.1 0.5 2.7 0.2 4.1-1.5 6.4-1.5 2-1.9 3.4-1.3 4.2 1.6 2.1 5.1 12 6.9 19.2 2.6 11.1 2.3 34.4-1 60.1-3.8 29.7-3.9 30.4-2.4 28 2.2-3.7 18.3-18.4 19.2-17.5 2.1 2.1-1.5 13.8-8.9 29-4.3 8.5-7.9 17.2-8.3 19.3-0.7 4.7 1.4 10.6 8.1 21.6 8.5 14.2 9.2 18.9 5.1 35.8-2.1 8.6-2.5 12.6-2.2 19.3 0.5 10.2 1 11.6 4.1 9.9 5.1-2.7 13.2-11.9 18.5-20.9 3-5.2 6.6-10.9 7.9-12.7 2.7-3.5 9-6.5 12.1-5.6 2.2 0.5 4.2 4.9 4.2 9 0 6.5-11.1 20.4-22.4 28.4-5.9 4-13.5 7-17.7 7-2.1 0-3 0.4-2.6 1.2 0.2 0.7 1 2.9 1.7 4.8 1.1 3 2.4 4.1 8.9 7.2 8.2 3.9 17.6 11.7 21.2 17.4 1.2 1.9 2.5 3.2 3 2.7 2.4-2.5 8.2-13.7 10-19.3 6-19.4 13.8-85 11-92.4-1.4-3.5-11.7-11-18.9-13.8-3.5-1.3-9.4-2.4-15.3-2.8-11.8-0.9-14.9-2.5-14.9-7.6 0-2.8 0.5-3.7 3-5 9.4-4.8 29.5 2.5 40.4 14.8 3.8 4.2 5.6 5.6 5.6 4.4 0-1-1.2-8.9-2.6-17.4-2.9-17.6-5.7-27-10.5-34.9-3-4.8-3.7-5.4-6.7-5.4-2.2 0-4.1-0.8-5.9-2.6-2.2-2.2-2.4-3.1-1.9-6.7 0.9-5.3 2.1-6.7 6.1-6.7 4.6 0 8.5 4.1 8.5 8.9 0 2.1-0.4 4.1-1 4.7-0.6 0.6 0.2 2.6 2.4 5.7 4.9 6.9 7.3 13.1 10.2 26.4 1.4 6.4 2.6 11.9 2.8 12 0.1 0.2 1.1-3.2 2.1-7.5 2.8-12 7.8-25.6 16.6-44.9 16.3-35.8 20.3-52.5 16.9-70.4-1.2-6.4-1.5-6.8-3.7-4.8-5.7 5-17 8-30.3 8.2-9.3 0-12.1-1-25.7-9.6-7.1-4.5-8-6.1-2.5-4.6 4.5 1.3 15.2 0.5 29-2.2 11.5-2.2 18.8-2.5 24.5-0.9 2.1 0.6 4.2 0.9 4.7 0.7 1.4-0.5-4.5-13.3-16.4-35.6-9.2-17.1-11.2-20.3-13.5-20.8-7.1-1.6-12.3-3.8-17.2-7.5-3-2.2-8-5.6-11.2-7.5-3.5-2.2-6.9-5.3-8.8-8.3-1.8-2.6-4.6-6.2-6.2-8-1.7-1.7-2.9-3.2-2.6-3.2 0.3 0 5.9 2 12.4 4.5 13.7 5.2 19.6 8.9 27.9 17.2 4.7 4.7 5.7 5.4 5.2 3.4-2.6-9.8-3.8-19.4-3.9-31.2-0.1-8.3-0.6-14.1-1.3-15-4.5-5.6-6-18.2-3-25.4 1.9-4.5 4.1-4.5 5.7 0zm-4.5 1.1c-1.2 3.1-0.6 17.9 0.9 20.4 1.5 2.8 1.6 2.6 3.5-4.8 1-4 0.1-13.6-1.5-16.3-0.9-1.4-2.2-1.1-2.9 0.7zm10.2 2.2l-0.3-3.3-1.8 3.2c-2.7 5-1.8 8.6 1.2 4.9 0.7-0.8 1.1-3 0.9-4.8zm8.4 0.2c-1.9 0-10.5 8.5-11.8 11.7-1.6 3.8-1.8 7.3-0.4 7.3 0.5 0 2.1-2.1 3.7-4.7 2.9-5 4.5-4.5 1.8 0.6-0.8 1.7-1.1 3.1-0.6 3.1 1.6 0 5.9-5.9 6.5-9 0.3-1.6 0.9-4.4 1.2-6 0.3-1.7 0.1-3-0.4-3zm13.3 43.2c-10.1 5.1-16.1 12.6-18.4 22.8-1.1 5.1-0.1 5.3 2.1 0.3 1.6-3.4 3.4-5.8 14.4-19.1 1.9-2.3 4-4.2 4.7-4.2 0.6 0-0.1 1.2-1.5 2.7-6.9 7.3-20.2 28.4-17.9 28.4 0.5 0 2.4-2.4 4.2-5.3 1.8-2.8 5.1-7.2 7.2-9.7 2.2-2.5 4.7-6.4 5.7-8.6 0.9-2.2 2.9-5.5 4.4-7.3 3.4-3.9 2.7-3.9-4.9 0zm-64.5 4.5c0 2.1 9.9 11.6 16.9 16.2 8.5 5.5 19 10.7 19.8 9.9 0.5-0.6-3.3-3.5-9.2-7-6.2-3.7-5.1-4.6 1.5-1.2 2.9 1.4 5.4 2.4 5.7 2.2 0.6-0.7-11.1-10.3-15-12.4-4.6-2.5-19.7-8.3-19.7-7.7zm-48.9 83c-2.7 1.8-2.8 4.1-0.3 7.1 2.2 2.6 3.3 3 2.5 0.8-0.5-1.2-0.2-1.4 1.2-0.8 1.7 0.6 1.7 0.5 0.6-1-1.2-1.4-1.1-1.9 0.3-3.4 1.7-1.6 1.7-1.6 1.1 0.3-0.5 1.5-0.1 2 1.5 2 1.4 0 1.9-0.5 1.6-1.8-0.3-1 0-1.8 0.6-1.8 0.7 0 0.3-0.7-0.7-1.5-2.5-1.9-5.6-1.9-8.4 0.1zm88.4 5.5c-3.8 0.9-10.1 2-13.8 2.4-3.8 0.4-6.7 0.9-6.5 1.1 1.4 1.3 11.4 2.3 15.4 1.4 2.4-0.6 10.1-1.5 17-2.1 7-0.6 13.6-1.4 14.8-1.9 1.8-0.6 1.6-0.9-1.9-1.9-5.6-1.5-16.8-1.1-25 1zm27.5 4.1c-0.8 0-6.9 0.5-13.5 0.9-6.6 0.5-14.7 1.3-18 1.9-3.3 0.5-7.8 0.7-10 0.4-5.6-0.8-2.9 1 5.5 3.7 5.2 1.6 7.9 1.9 13.5 1.3 8.5-0.8 18.5-3.7 21.7-6.4 1.5-1.3 1.8-1.9 0.8-1.8zm15.3 4c1.3 1.8 4.8 7.7 7.7 13 3.6 6.7 8.2 13 14.8 20.3 5.2 5.8 9.7 10.3 10 10.1 1.3-1.4-14.4-24.4-26.1-38.4-6.7-8-11.2-11.4-6.4-5zm9 5.2c12.5 15.1 18.7 23.8 23.2 32.4 1.5 2.9 3 5 3.3 4.8 0.3-0.3-0.5-3.4-1.8-6.8-3-8.3-11.6-21.2-18.8-27.9-13-12.2-14.5-12.8-5.9-2.5zm49 7.2c-2.7 1.9-2.2 2.9 1.6 3.7 3.8 0.8 9.1 5.3 10.8 9.2l1.3 3 0.1-4.4c0-3.8-0.5-4.9-4.4-8.7-4.7-4.8-6-5.2-9.4-2.8zm-270.9 10c0.9 7.7 3.4 13.3 7.4 16.7 4.7 3.9 5.4 3.3 2.7-2.1-1.3-2.6-2.9-7-3.6-9.7-0.6-2.8-1.9-6.1-2.8-7.4-3.4-4.7-4.5-3.9-3.7 2.5zm271.7 2.5c0 1.4 1.1 2.5 3.6 3.5 5.1 2.1 5.9 1.4 2.5-2.4-3.4-3.7-6.1-4.2-6.1-1.1zm-13 4.9c0 2.4 8.4 9 11.5 9 1.1 0 2.9-0.6 4-1.3 1.6-1.3 1.5-1.5-2.1-2-2.5-0.4-5.6-2-8.1-4.2-4.8-4-5.3-4.2-5.3-1.5zm-238.2 3.2c-1.8 3-2.8 9.8-1.5 9.8 0.3 0 1.6-0.7 2.9-1.5 3-2 5-6.7 4.1-9.4-0.9-3.1-3.2-2.6-5.5 1.1zm9.7 16.4c-3.1-1.3-5.7-2.1-5.7-1.7 0.1 1 11.4 8.9 14.5 10.1 5.5 2.1 11.3-0.8 10-5.1-0.7-2-1.2-2.1-6.9-1.6-5 0.5-7.2 0.2-11.9-1.7zm199.8 9.4c-1.7 0.7-2.2 1.7-2.2 4.6 0 2.6 0.3 3.4 0.9 2.4q0.9-1.6 0.9 2.1c0 2.6 0.3 3.1 1 2 1.3-2 1.3-6.1 0-6.1-0.5 0-1-0.5-1-1 0-0.6 0.7-0.6 1.9 0.2 1.5 0.9 1.8 2.1 1.4 4.8-0.4 3.2-0.3 3.4 0.8 1.6 1.2-1.9 1.2-1.9 2 0 0.6 1.8 0.8 1.7 1.8-1 1.4-3.4 0.7-7.4-1.7-9.3-2-1.4-2.9-1.5-5.8-0.3zm-84 11.1c-4 0-6 7.4-2.8 10.1 1.5 1.2 1.6 1.1 1.1-0.6-0.4-1.1-0.3-2.6 0.2-3.4 0.7-1.1 1.3-1 3.5 0.4 3 2 3.3 1.9 3.8-1 0.2-1.5-0.3-2.1-2-2.3q-2.4-0.3-1.8-1.8c0.4-1-0.2-1.4-2-1.4zm149.2 5.9c-4.3-0.7-8.7 0.4-14 3.6-10.6 6.1-15.4 12.6-17 22.5-0.7 4.2-0.7 4.4 1.1 3 2.7-2.1 4.4-3.8 9.3-10 9.8-12.1 14.6-16.2 21.1-18 2.5-0.7 2.5-0.7-0.5-1.1zm23.5 0.1c0 0.5 0.7 1 1.5 1 5.6 0 19.2 11.5 25.3 21.4 3.4 5.6 3.7 5.8 4 3.3 0.2-1.5-0.6-4.2-1.8-6.1-3-4.9-13.4-14.3-18.8-17-5.8-2.9-10.2-4-10.2-2.6zm-172.8 2.7c0.9 0.9 2 1.3 2.4 0.9 0.4-0.4 0.1-1.1-0.7-1.6-2.5-1.6-3.5-1.1-1.7 0.7zm168.3 0.4c-1.9 0.7-1.9 0.8 0.1 0.8 2.9 0.1 8.3 2.5 11.6 5 1.5 1.2 5.1 5.7 8.1 10 3.8 5.3 6.7 8.3 9.2 9.5 2 1 3.9 1.6 4.2 1.3 0.2-0.3-0.4-2.2-1.5-4.4-2.3-4.3-11.4-13.3-18.6-18.2-5.4-3.7-10.1-5.2-13.1-4zm-19.1 1c-4 0.3-11.7 6.1-16 12.1-2 2.9-5.1 6.8-6.8 8.5-1.6 1.8-2.5 3.3-2 3.3 1.2 0 7.5-6.5 12.9-13.4 2.1-2.7 5.9-6.2 8.4-7.7 2.5-1.6 4.1-2.9 3.5-2.8zm-251.4 0.9c-4.1 0-8.9 7.7-6.3 10.3 0.8 0.8 1.1 0.8 1.1-0.1 0-0.6 0.6-0.9 1.3-0.6 0.9 0.3 1.8-0.7 2.5-2.8l1.1-3.3-0.5 3.2c-0.5 3.2 0.9 4.7 1.9 2 0.3-0.7 0.6-0.4 0.6 0.6 0.1 1.2 0.7 1.7 1.9 1.5 2.6-0.5 2.8-6.2 0.3-8.7-1.2-1.2-2.9-2.1-3.9-2.1zm29.2 15.2c0.9 12.8 2.3 19.3 5.6 26.3 2.9 6 10 16.8 10 15.1 0-0.5-1.8-6.5-4-13.2-2.2-6.8-4-13.3-4-14.4 0-3.9 1.7-1.2 3.5 5.7 1 3.7 2.9 9 4.1 11.8l2.3 5-0.5-6c-1-10.1-7.8-28.6-13.6-36.8-3.4-4.8-4.1-3.4-3.4 6.5zm39.1-2.2c-2.3 0.1-11.3 8.6-13.9 13.2-2.4 4.1-3 6.4-3.3 12.7-0.3 6.4-0.1 7.2 0.9 5.1 5.2-11 8.2-16.6 9.1-17.5 1.4-1.3 0.7 1.3-2.1 8.4-3.4 8.1-0.2 4.7 4.8-5.2 2.2-4.5 4.4-10.1 4.7-12.5 0.4-2.3 0.3-4.2-0.2-4.2zm-119.2 3.3c-0.7-0.3-1.3 0.1-1.3 0.9 0 0.7-1.2 5.4-2.6 10.5l-2.6 9.2 3.3 4c1.8 2.3 3.6 4.1 3.9 4.1 0.4 0 0.7-6.4 0.6-14.2-0.1-10.3-0.4-14.2-1.3-14.5zm-57.7 9.6c3.6 5.6 10.3 9.9 22.9 14.5 24.5 9.2 27.3 10.5 32.3 14.9 1.5 1.4 2.2 1.6 2.2 0.7 0-2.6-8.7-9.7-16.6-13.5-8.2-3.9-16.8-9.4-16.1-10.1 0.8-0.8 22.4 10 27.5 13.7 2.8 2.2 5.2 3.6 5.2 3.2-0.1-1.6-6.6-9.2-10.9-12.8-6.2-5.1-11.6-7.6-26.2-12.4-18-5.9-24.9-5.3-20.3 1.8zm62.8 11.1c-0.2 0-0.4 3.9-0.4 8.7v8.8l2.5-2.6 2.5-2.5-2.1-6.2c-1.1-3.4-2.3-6.2-2.5-6.2zm13.8 8.9c-4.6 2.5-3.3 2.6 3.9 0.5 3-0.9 8.5-1.9 12.3-2.3 4.2-0.3 7.1-1.1 7.4-1.9 0.9-2.9-16.1-0.2-23.6 3.7zm27.5-3.2c-1.7 1.6-0.4 3.1 3.7 4.3 5.1 1.4 10.6 4.5 10.6 6 0 0.6-1.7 0.2-3.7-0.9-2.1-1-6.1-2.6-9-3.4-5-1.5-5.1-1.5-7.4 0.9-1.2 1.3-2.1 2.6-1.8 2.8 0.2 0.2 4.2 2.3 8.8 4.5 9.7 4.7 16.1 5.5 16.1 2.1 0-1.1-0.4-2-1-2-0.5 0-1-0.5-1-1.2 0-0.9 0.3-0.9 1.2 0 1.9 1.9 2.8 1.4 2.8-1.2 0-3.4-4.2-8-9.5-10.5-4.5-2.1-8.6-2.7-9.8-1.4zm86.9 0c-2.3 0.6-4.5 2.3-2.8 2.3 2.8 0 18.7 3.2 20.4 4.1 3.5 1.8 2 2.7-2.3 1.4-2.4-0.7-7.9-1.6-12.3-2-7.5-0.6-7.9-0.6-6.4 1 1.2 1.2 4.4 1.9 11 2.5 10.6 0.9 18.5 3.5 25.9 8.5 4 2.7 4.8 3 3.9 1.3-1.7-3.2-9.2-10.3-14-13.4-2.4-1.5-7-3.6-10.2-4.6-5.8-1.8-9.2-2.1-13.2-1.1zm122 1.4c-8.4 0.1-11.1 0.6-16 3.2-3.7 1.9-10 8.4-7 7.2 20.3-8.3 34.3-8.4 41.1-0.4 2.1 2.6 2.5 2.8 2.5 1.1 0-3-3.9-7.2-8.4-9.3-3-1.3-6.4-1.8-12.2-1.8zm-217.1 3h-4c-7.5 0.1-20.1 4.6-26 9.4-1.8 1.4-1.7 1.4 2-0.1 7.5-3 13-4.4 17.7-4.4 3.6 0 5.4-0.6 7.5-2.5zm218.6 3c-4.5 0-19.6 4.3-21.4 6-1.6 1.4 0.3 1.1 8.8-1.6 9-2.9 17.3-3.2 23.8-1 3.9 1.3 4.2 1.3 2.4 0-1-0.8-3.5-2-5.6-2.5-1.9-0.5-5.5-1-8-0.9zm-267.4 1.9c-1.1 0.1-7 17.3-22.2 64.7l-4.2 13.3 4.1 2.4c10.2 6 27.2 14 30.7 14.4 4.9 0.7 4.9-0.3 0.4-6.6-14.9-20.8-14.8-51 0.2-71 3.3-4.3 2.5-7.4-3.3-12.9-2.4-2.4-5-4.3-5.7-4.3zm18.4 8.1c-4 2.4-3.6 3.3 1.3 2.4 2.6-0.5 3.6-1.2 3.6-2.6 0-2.4-0.7-2.4-4.9 0.2zm5.5 4c-0.6 0-3.3 0.8-5.9 1.7-4.3 1.4-5.2 2.3-8.7 8.2-10.3 17.7-11.8 37.5-3.9 54.9 3.2 7.1 9.3 15.2 11.3 15.2 0.7 0 4.1-1.4 7.5-3.2 5.1-2.6 7.6-3.2 14.7-3.6l8.6-0.5-0.6-3c-0.3-1.6-3.9-13.4-8-26.1-4.1-12.8-9-27.8-10.7-33.5-1.8-5.6-3.8-10.2-4.3-10.1zm167.9 3.3l-2.9 2.5 2.5 0.1c6.2 0.1 10.8 5.5 17.7 20.5 5.7 12.4 11.3 17.4 11.3 10 0-4.3-2.2-8.9-8.5-17.3-2.5-3.5-4.4-6.6-4.2-6.8 1.8-1.8 15.6 19.6 15.7 24.3 0.1 1.6 0.2 1.6 1.6-0.2 5.2-6.7-6.5-27.2-18.5-32.4-8.2-3.5-11.4-3.6-14.7-0.7zm103.3 2.9c0.4 2.8 0 9.4-1.1 16.3-2 13-1.6 20.5 1 23.4 1 1.1 2.1 2 2.5 2 0.4 0 1.3-5 2-11.1 1.3-12 0.7-21.6-1.7-28.9-2.2-6.5-3.4-7.3-2.7-1.7zm8.7 10.2l-1.9-6v11.5c0.1 6.3-0.3 14.8-0.8 18.7-0.9 8.2 0.1 9.4 3.5 4 1.8-2.8 2-4.4 1.6-12.7-0.3-5.3-1.3-12.2-2.4-15.5zm-63.2-1.8c-0.9 0.4-1 0.8-0.2 1.8 0.8 0.9 0.8 1.5 0 2-0.5 0.3-1 1.4-1 2.3 0.1 1.6 0.2 1.6 1.4-0.1 1.8-2.3 2.9-2.2 1.6 0.2-0.6 1.2-0.6 2.2-0.1 2.5 0.5 0.3 1.2-0.2 1.6-1.2 0.7-1.6 0.8-1.5 1.5 0.3 0.7 1.9 0.8 1.8 2-0.7 1.1-2.3 1-3.1-0.4-5.3-1.6-2.4-3.6-3-6.4-1.8zm-166.3 25.2c-0.8 0.6-1.2 1.2-0.9 1.5 0.3 0.3 5.9 3.1 12.4 6.2 12.1 5.7 18.7 9.7 23.9 14.3 2.4 2.1 2.7 2.2 1.8 0.6-2.5-4.9-15.1-14.9-24.7-19.7-6.1-3.1-10.5-4.1-12.5-2.9zm1 4.6c-3.8-2.4-4-2.4-4-0.6 0 3.2 7.7 8.9 16.4 12.1 4.5 1.7 10.1 3.9 12.6 5l4.5 2-4.4-4c-2.4-2.2-8.2-5.8-12.8-8-4.6-2.2-10.1-5.1-12.3-6.5zm86.5-0.6c-3.4 2.1-8 8.2-14.4 19.1-2.4 4.1-6.7 10-9.6 12.8-2.9 2.9-4.9 5.3-4.5 5.3 0.4 0 3.4-1.7 6.7-3.8 5.6-3.7 14-12 19.5-19.2 1.5-1.8 2.9-2.9 3.2-2.5 0.9 1.5-12.8 17-19.5 22-6.5 4.9-5 5.4 2.9 0.9 5.6-3.2 17.3-14.9 20.6-20.5 3.5-6 4.5-12.1 2.2-14.3-2.1-2.2-3.3-2.1-7.1 0.2zm-212.6 10.6c0 0.9 1.6 2.3 3.5 3.2 1.9 0.9 3.5 2 3.5 2.5 0 1.4-2 0.9-5-1.4-1.6-1.2-3.2-1.9-3.6-1.6-1.4 1.5 3.1 6.9 8.8 10.5 6.8 4.4 30 15.7 30.6 15 0.2-0.2-2.5-2-6-3.9-8.5-4.7-23.9-15.4-23.2-16.1 0.4-0.3 3.8 1.6 7.8 4.2 10.6 7.3 27.8 15.4 29.3 14 0.2-0.3-4.5-3.1-10.6-6.2-6-3.2-13.3-8-16.2-10.6-3-2.7-8.2-6.2-11.6-8-7.2-3.6-7.3-3.6-7.3-1.6zm132.3 1.1l-3.3-1.7 0.7 2.7c0.4 1.4 4.6 14.6 9.3 29.3l8.7 26.7 4.2 0.7c2.3 0.4 8.3 2 13.4 3.6 5.1 1.7 11.4 3.2 13.9 3.4l4.5 0.3-0.4-4.5c-0.1-2.5-0.4-4.6-0.5-4.7-0.1-0.2-4.9-0.7-10.8-1.3-12.4-1.2-17.2-2.5-21.1-5.3-3.1-2.3-3.6-5.2-1.3-8.4 2.8-3.9 13-5.9 22.5-4.4 3.6 0.6 6.7 0.9 6.9 0.6 2.3-2.3-10.7-17.4-21.5-25.2-3.5-2.5-9.9-5.8-14.1-7.3-4.3-1.5-9.3-3.5-11.1-4.5zm218.7 8.8c-0.8-0.3-1.7 0.2-2.1 1.3-0.3 1-0.9 2.5-1.3 3.3-0.5 1.3-0.4 1.3 1.1 0.1 0.9-0.8 2-1.1 2.3-0.7 0.7 0.7-0.9 2.1-3.2 2.9-0.5 0.3-0.6 0.9-0.2 1.4 0.4 0.4 1.7 0.3 2.7-0.4 2.4-1.6 3-1.6 3-0.2 0 0.5-0.6 1-1.3 1-0.7 0-1.8 0.5-2.4 1.1-1.3 1.3-0.6 3.9 0.9 3.9 0.5 0 0.7-0.3 0.4-0.8-0.2-0.4 0.7-1.2 2-1.9 1.3-0.6 2.6-0.8 2.9-0.3 0.3 0.4-0.5 1.1-1.8 1.5-1.6 0.4-1.8 0.8-0.8 1.2 1.9 0.8 6.1-4.2 6.1-7.3 0-2.8-2.4-5.5-5-5.5-1 0-2.5-0.3-3.3-0.6zm-98.8 3.3c-4.4 2.3-7 6.7-5.4 9.1 1.2 2 5.3 2.1 17.4 0.8 5.8-0.6 7.4-0.4 14.8 2.4 8.1 3 14.2 4 14.2 2.2 0-1.5-11.2-5.1-20.9-6.7-17.9-2.9-18.6-3.1-8.5-3.3 6.8-0.1 11.7 0.6 19 2.4 5.3 1.4 10 2.3 10.2 2 1.1-1.1-9.8-6.7-16.2-8.2-11.2-2.6-20.4-2.9-24.6-0.7zm-164.3 7.3c-7.4 1.1-6.5 1.7 3.3 2.4 6.9 0.5 10.7 1.4 15.9 3.7 3.8 1.6 7.6 3 8.5 3 2.1 0 5.5 1.8 5.5 2.9 0 0.9-6.5-0.7-15.5-3.9-5.3-2-26-3.6-26.9-2.2-0.3 0.5 3.2 1.4 7.7 2.1 11 1.7 22.6 4.6 31.9 8.3 8.6 3.2 11.3 3 7.7-0.8-1.7-1.8-1.9-2.4-0.8-2.4 0.8 0 2 0.5 2.7 1.2 0.9 0.9 1.2 0.7 1.2-0.9 0-1.2-0.7-2.8-1.5-3.7-2.3-2.3-11.3-6.3-18-7.9-7.9-2-15.9-2.6-21.7-1.8zm-67.3 3.1c-0.4 0-25.6 76.5-25.6 77.7 0 0.7 88 0.8 88.9 0 0.2-0.1-0.2-1.4-0.8-2.9-1.1-2.3-0.9-3 1.6-6.3 3.5-4.6 18.2-17.6 24.6-21.7 2.7-1.7 4.8-3.5 4.8-3.9 0-2.6-2.2-4.5-9.3-8-12.3-6.2-23.3-13.8-32.9-22.7l-4.7-4.4-3.6 3.4c-8.5 7.7-10.9 16.6-8.1 29.8 3.1 14.6 1.7 24.4-4 28.9-3.4 2.7-4.6 1-1.6-2.2 2.7-2.8 5.2-8.9 5.2-12.3 0-1.5-0.9-7.6-2.1-13.6-2.3-12.4-1.8-17.9 2.7-25.5l2.4-4.2-2.7 1.2c-9.4 4.1-11.3 7.9-11.3 22.2 0 7.4-0.4 11.5-1.5 13.5-1.5 3-6.5 7.4-7.3 6.5-0.3-0.2 0.7-1.4 2.1-2.5 3.9-3.1 5.1-7.9 4.3-18.4-0.8-10.5 0.2-14.5 4.6-19.2l3-3.2-3.8-1.2c-2.1-0.7-8.5-3.5-14.2-6.1-5.7-2.7-10.5-4.9-10.7-4.9zm52.2 6.9c-1.5 0.5-0.7 1.6 4.5 5.7 13.8 11 33.8 23.2 33.8 20.6 0-0.4-1.6-5.5-3.6-11.4-4-12.1-3-11.3-16.9-13.7-8.9-1.5-15.8-2-17.8-1.2zm234.4 2.7c0 1.1 2.4 5.1 6 9.9 2.1 2.7 4.9 8.3 6.4 12.3 1.4 4 3.3 8.7 4.2 10.5 3.4 6.7 8.5 10 8.5 5.6 0-1.8 0.3-1.9 1.5-0.9 2.4 2 2.9-3 0.9-10-1.7-6-7.7-15.4-13.3-21-2.9-2.8-2.2-1.5 2.5 5.1 4.2 5.7 8.1 14.4 8.8 19.5 0.6 3.5 0.5 3.6-0.5 1.4-8.8-19.2-14.8-28.3-21.1-31.5-3-1.6-3.9-1.8-3.9-0.9zm-15.5 5.6c-5.4 5.6-17.6 11.1-30.5 13.9-5.8 1.2-11.1 2.7-11.8 3.3-0.9 0.6-1.3 2.8-1.2 6 0.4 8.2 0.1 10.4-1.6 12-1.4 1.5 0 1.6 15.1 1.6 15.4 0 16.6-0.1 16.1-1.8-1.3-3.9-0.8-10.9 0.9-14.5 1-2.1 4.2-5.9 7.2-8.5 3-2.6 6.6-6.6 8-8.9 3.7-6.4 2.6-8.1-2.2-3.1zm8.3-0.5c-0.3-1.9-0.5-1.7-1.5 1.1-0.7 1.9-4.6 6.8-8.7 11-4 4.3-7.8 8.7-8.5 9.9-0.6 1.2-1.1 5.1-1.1 8.7v6.6h6.1c5.4 0 6-0.2 5.4-1.8-0.4-0.9-0.9-4.4-1.2-7.7-0.4-5.3-0.2-6.6 2.6-11.5 1.7-3 4-7.4 5.2-9.8 1.1-2.3 1.9-5.3 1.7-6.5zm-136.7 0.8c0.3 0.3 3.9 1.2 7.9 2l7.5 1.4-9.6-0.4c-9-0.4-9.3-0.4-5.5 0.9 5 1.6 17.6 2.9 17.6 1.8 0-2.3-3-4.3-7.9-5.2-6-1.1-10.9-1.3-10-0.5zm22 4.5c-1.7 0-0.1 2.9 2 3.5 2.3 0.7 2.5 2.5 0.4 2.5-0.9 0-1.5 0.9-1.5 2.4 0 2.1 0.6 2.5 4.3 3.1 5.3 0.8 13.8 3.4 15.5 4.8 0.7 0.5 1.5 0.8 1.8 0.5 0.9-1-11.7-11.8-16.7-14.3-2.6-1.4-5.3-2.5-5.8-2.5zm-27.2 1.2c-9.5 1-10.2 1.9-3.7 4.8 4.3 1.9 13.1 3.6 22.6 4.3 4.7 0.4 5.2 0.2 5.2-1.7 0-3.2-1.2-4.2-5-4.4-1.9-0.2-6.7-0.9-10.6-1.7-3.8-0.8-7.7-1.4-8.5-1.3zm33.9 13.2l-4.8-0.6v4.1c0 3.4 0.4 4.3 2.4 5 4.3 1.7 4.1 7.2-0.3 8.6-1.4 0.4-2 1.9-2.5 6.8-0.9 7.7-2.5 14.3-4.3 17.9-2.1 4.2 0 3.4 6.6-2.8 8.2-7.6 13.1-14.4 13.1-18.3 0-2.6 0.4-3.1 2.4-3.1 1.5 0 3.3-1.2 5.1-3.6 2.6-3.4 2.6-3.6 0.9-5.5-1-1.1-4.5-3.3-7.8-4.9-3.4-1.6-8.2-3.2-10.8-3.6zm-56.1 4.3c-4.7 2-4.9 3.3-0.4 2.3 5.7-1.3 11.4 0.2 24 6 8.3 3.8 16.3 5.5 21.1 4.6 5.2-1 4.4-2.3-1.6-2.9-2.9-0.3-11-2.2-17.8-4.3-10.4-3.3-11.8-3.9-8.8-4.2 2-0.2 8 1 13.5 2.7 5.5 1.7 10.9 3.1 11.9 3 1 0-4.1-2-11.6-4.4-18.2-5.9-22.2-6.3-30.3-2.8zm99.2-2.1c-0.6-0.5-8.9 3.7-8.9 4.4 0 0.6 5.9 3 7.3 3 0.3 0 0.9-1.6 1.3-3.5 0.3-2 0.5-3.7 0.3-3.9zm-121.6 9.9c-6.8 3.4-25.6 19.4-26.8 22.7-1.4 3.9 0.6 7.8 3.9 7.8 6.3 0 13-5.7 22.4-18.8 5.6-7.8 5-8.3-2.1-1.6-5.9 5.5-13.7 11.4-15.1 11.4-0.7-0.1 0.6-1.5 2.8-3.3 2.2-1.8 6.6-5.8 9.9-9.1 3.3-3.2 7.7-7.1 9.9-8.7 5.2-3.7 2.2-4-4.9-0.4zm113.8-0.1c4.7 3.2 10.1 10.4 19.4 25.9 4.2 7 9.9 15.1 12.6 18l5 5.2-0.6-5c-1.5-11.3-7.6-21.6-20-34.1-4.4-4.5-9.9-9.1-12.2-10.3-5.9-3-8.8-2.8-4.2 0.3zm-66.6 3.3c-4.7-2-8.6-3.1-8.6-2.5 0 0.6 0.5 2.8 1.2 4.9 0.9 3.2 2.1 4.4 6.4 6.9 8.7 4.9 13.2 15.7 10.6 25.3-0.6 2-0.7 3.7-0.2 3.7 0.4 0 2.4-2.4 4.5-5.3 4-5.8 8.2-17.7 8.7-24.5l0.3-4.3-7.1-0.4c-5.4-0.2-9.6-1.3-15.8-3.8zm63.6 2.2c3.1 2.7 6.4 7.5 10.8 15.7 8.9 16.7 14.4 24.2 19.5 26.5 6.6 3 7.1 2.2 2.2-3.2-2.5-2.8-7.5-10-11.1-16-8.3-13.7-13.3-19.9-18.9-23.8-6.3-4.3-7.7-3.9-2.5 0.8zm-106.2 4.1c-0.4 0-2.3 2.4-4.2 5.2-4.5 6.6-11.2 13.3-14.9 15-1.6 0.7-2.9 1.5-2.9 1.8 0 0.3 6.5 0.5 14.5 0.5 8 0 14.5-0.4 14.5-0.9 0-0.5-1.4-5.6-3.2-11.3-1.7-5.6-3.5-10.3-3.8-10.3zm92.2 4c-2.4 0-3.8 1.2-7.9 6.2-6.7 8.5-15.1 16.3-24.4 22.8-4.3 2.9-7.9 5.7-7.9 6 0 0.4 2 2.1 4.6 3.9 3.5 2.5 5.3 5 8.4 11.4 2.9 6.1 5.5 9.7 9.8 13.8 6.4 6.2 9.1 7.8 17.3 10.4 6.4 2 15 6.4 15 7.7 0 0.4 0.7 0.8 1.5 0.8 1.2 0 1.5-1.9 1.5-11 0-9-0.3-11-1.5-11-4.3 0-5.7-11.4-3-25.3 1.6-8.2 1.1-14.3-2-28.1-1.7-7.1-3-8.8-2.1-2.5 1.2 8.4 0.7 23.2-1 28.9-3.8 13-4.4 15.7-4.4 20.6 0 2.8 0.5 7.5 1 10.4 0.6 2.9 0.8 5.5 0.5 5.8-0.3 0.3-1.4-1.7-2.6-4.3-3.2-7.1-2.8-14.9 1.1-26.5 2.7-7.9 3.3-11.5 3.7-21.5 0.3-6.6 0.1-13.5-0.4-15.4-0.8-3.2-1.1-2.7-3.2 7.5-1.2 6.1-3.4 13.7-4.8 17-4.1 9.8-6.3 17.3-6.3 22 0 2.4-0.4 4.4-1 4.4-0.6 0-1-3.2-1-7.6 0-6.8 0.4-8.5 4.1-16.3 4-8.5 7.9-22 7.9-27.4 0-2.3-0.4-2.7-2.9-2.7zm17.4 0.5l-2.9-0.3c-2.6-0.3-2.8-0.1-2.3 2 0.4 1.3 1.4 6.1 2.2 10.8 2.9 15.2 3.4 15.4 3.2 1zm-66.7 15c2.5 8 5.1 14.5 5.7 14.5 0.7 0 1.4-2.6 1.8-6.3 0.9-8.4-1.2-15.5-5.9-19.6-6.4-5.6-6.6-4.3-1.6 11.4zm66.8 15.5c-1 0-1.8 4.3-2.3 13-0.4 7.7-0.2 9.9 1.1 11.5 1.4 1.8 1.5 1 1.6-11.3 0-7.2-0.2-13.2-0.4-13.2z"/><path  d="m461.9 28.9c-0.4 0.7-0.5 1.5-0.2 1.8 0.9 0.9 1.9-0.4 1.4-1.8-0.4-1.1-0.6-1.1-1.2 0z"/><path  d="m431.8 82.6c1.7 1.3 3.7 2.4 4.5 2.5 0.9 0 0.3-1-1.5-2.5-1.6-1.3-3.7-2.4-4.5-2.5-0.9 0-0.3 1 1.5 2.5z"/><path  d="m360.6 262.6c1 4.2 3.5 10 4.1 9.4 0.6-0.5-2.8-10.5-4-11.6-0.4-0.4-0.5 0.6-0.1 2.2z"/><path  d="m391.9 268.1c-0.4 0.7-0.5 1.5-0.2 1.8 0.9 0.9 1.9-0.4 1.4-1.8-0.4-1.1-0.6-1.1-1.2 0z"/><path  d="m222.1 271.7c0.7 0.8 1.9 1.5 2.7 1.5 1.3 0 1.3-0.3 0.3-1.5-0.7-0.8-1.9-1.5-2.7-1.5-1.3 0-1.3 0.3-0.3 1.5z"/><path  d="m231.1 274.7c0 0.7 7.8 4.5 9.1 4.5 2 0-0.1-2-3.7-3.5-3.7-1.5-5.4-1.9-5.4-1z"/><path  d="m432.8 302.1c-0.8 0-1.4-0.6-1.4-1.4 0-0.8 0.6-1.4 1.4-1.4 0.8 0 1.4 0.6 1.4 1.4 0 0.8-0.6 1.4-1.4 1.4z"/><path  d="m469.5 321.4c0.3 0.7 1.3 1.5 2.4 1.7 1.6 0.3 1.7 0.1 0.5-1.3-1.6-1.9-3.4-2.1-2.9-0.4z"/><path  d="m432.9 357.8c-0.8 2.1-0.8 2.4 0.3 2.4 1.2 0 2.2-2.8 1.2-3.5-0.5-0.3-1.2 0.2-1.5 1.1z"/><path  d="m430.3 364.2c0 0.5 0.5 1 1 1 0.6 0 1-0.5 1-1 0-0.6-0.4-1-1-1-0.5 0-1 0.4-1 1z"/><path  d="m466.6 384.9c-1.8 0.6-1.6 2.4 0.1 2.4 1.7 0 3-1.7 1.9-2.4-0.5-0.2-1.4-0.2-2 0z"/><path  d="m408.5 417.5c0.5 1.5 2.8 2.3 2.8 1 0-0.5-0.7-1.3-1.6-1.6-1-0.4-1.4-0.1-1.2 0.6z"/><path  d="m414.7 420.8c2.1 1.6 3.2 1.3 2.1-0.4-0.3-0.6-1.4-1.1-2.3-1.1-1.5 0.1-1.5 0.2 0.2 1.5z"/><path  d="m359.7 430.3c-0.6 0-1.1-0.5-1.1-1 0-0.6 0.5-1 1.1-1 0.6 0 1.1 0.4 1.1 1 0 0.5-0.5 1-1.1 1z"/><path  d="m304.9 460c-0.4 0.3-0.7 1.3-0.7 2.1 0 1.2 0.3 1.2 1.5 0.2 0.8-0.7 1.5-1.6 1.5-2.1 0-1.1-1.4-1.2-2.3-0.2z"/><path fill-rule="evenodd" d="m350 642.4c1.3 0 2.6 2.3 4.7 8.2 1.7 4.5 3.2 8.6 3.3 9 0.2 0.4-0.5 0.8-1.6 0.8-1.2 0-2.3-0.9-2.7-2-0.5-1.5-1.5-2-4-2-2.4 0-3.4 0.5-3.8 2-0.3 1.2-1.4 2-2.6 2-2 0-2-0.2 1-8.1 1.6-4.5 3.2-8.6 3.5-9 0.3-0.5 1.3-0.9 2.2-0.9zm-1.8 9.2c0 1.1 0.7 1.8 1.9 1.8 1.4 0 1.8-0.5 1.4-2-1-3.6-3.3-3.5-3.3 0.2z"/><path  d="m360.2 643.9c0 0.9 0.9 1.5 2.5 1.5 2.4 0 2.5 0.2 2.5 7.5 0 6.8 0.2 7.5 2 7.5 1.8 0 2-0.7 2-7.4 0-7.3 0-7.5 2.7-7.8 1.4-0.2 2.8-0.9 3.1-1.6 0.3-0.9-1.6-1.2-7.2-1.2-6.1 0-7.6 0.3-7.6 1.5z"/><path  d="m380.2 651.4v9h6c3.4 0 6.1-0.4 6.1-1 0-0.6-1.8-1-4-1-3.9 0-4.1-0.2-4.1-3 0-2.8 0.3-3 3.6-3 2.4 0 3.5-0.5 3.5-1.5 0-1-1.1-1.5-3.5-1.5-2.9 0-3.6-0.4-3.6-2 0-1.7 0.7-2 4.1-2 2.9 0 4-0.4 4-1.5 0-1.2-1.3-1.5-6.1-1.5h-6z"/><path  d="m398.3 651.4v9h6c3.3 0 6-0.4 6-1 0-0.6-1.8-1-4-1h-4l-0.1-6.8c-0.1-3.7-0.1-7.3 0-8 0.1-0.6-0.7-1.2-1.9-1.2-1.9 0-2 0.6-2 9z"/><path  d="m414.3 651.4c0 8.3 0.1 9 2 9 1.9 0 2-0.7 2-9 0-8.3-0.1-9-2-9-1.9 0-2 0.7-2 9z"/><path  d="m425.3 651.4v9h6c3.3 0 6-0.4 6-1 0-0.6-1.8-1-4-1-3.8 0-4-0.2-4-3 0-2.8 0.3-3 3.5-3 2.4 0 3.5-0.5 3.5-1.5 0-1-1.1-1.5-3.5-1.5-2.8 0-3.5-0.4-3.5-2 0-1.7 0.7-2 4-2 2.9 0 4-0.4 4-1.5 0-1.2-1.3-1.5-6-1.5h-6z"/><path fill-rule="evenodd" d="m442.3 642.4h5.2c8 0 10.5 3.2 7.2 9-1.6 2.6-1.6 2.9 0 5.1 2.1 3 2 3.9-0.2 3.9-1 0-2.6-1.5-3.6-3.5-1.1-1.9-2.5-3.5-3.3-3.5-0.8 0-1.3 1.2-1.3 3.5 0 2.8-0.4 3.5-2 3.5-1.9 0-2-0.7-2-9zm6.4 3c-2 0-2.4 0.5-2.4 3 0 2.5 0.4 3 2.4 3 2.5 0 4.3-3 3.1-5-0.3-0.5-1.7-1-3.1-1z"/><path  d="m472.7 644.8c-0.3 1.3-0.4 3.5-0.2 4.7 0.2 2 0.9 2.4 3.8 2.4 2.8 0 3.6 0.4 3.8 2.1 0.4 3.1-2.2 4.9-4.1 2.9-1.7-1.6-4.7-2.1-4.7-0.7 0 2.1 4 4.3 7.1 4 7.3-0.7 7.3-10.9 0.1-11.6-4.4-0.4-3.6-2.6 1.1-3 2.4-0.2 3.7-0.8 3.7-1.8 0-1-1.3-1.4-5-1.4-4.4 0-5 0.3-5.6 2.4z"/><path fill-rule="evenodd" d="m499.5 644.1c2.4 2.2 2.5 11.8 0.1 14.5-2.1 2.3-7.2 2.3-8.9 0-1.9-2.4-1.8-11.2 0.2-14 1.8-2.6 6-2.9 8.6-0.5zm-4.2 1.3c-3.3 0-4.3 8.6-1.3 11.5 1.6 1.6 1.7 1.6 3-0.1 1.4-1.9 1.7-7.1 0.7-9.8-0.3-0.9-1.4-1.6-2.4-1.6z"/><path fill-rule="evenodd" d="m518.3 649.4c-0.9 1.6-0.9 2.5-0.1 3.3 1.6 1.6 1.4 4.3-0.5 6.1-1.8 1.9-7.5 2.1-9.2 0.4-1.5-1.5-1.6-6-0.1-7.5 0.8-0.8 0.8-1.3 0-1.7-1.7-1.1-1.3-5.4 0.7-6.5 5.2-3.1 11.7 1.2 9.2 5.9zm-3.5-2c0-1-0.7-1.8-1.7-1.8-1 0-1.8 0.8-1.8 1.8 0 1 0.8 1.9 1.8 1.9 1 0 1.7-0.9 1.7-1.9zm-4.1 6.4c-0.8 2.1 1.3 4.6 3.2 3.9 0.8-0.3 1.4-1.5 1.2-2.7-0.4-2.5-3.6-3.4-4.4-1.2z"/><path  d="m348.4 671.6c-0.7 0.7-1.2 1.6-1.2 2 0 1.5 1.5 0.8 2.8-1.2 1.3-2.2 0.3-2.7-1.6-0.8z"/><path  d="m341.2 686.3c0 8.1 0.3 10.1 1.6 10.6 2.5 1 10.2 0.7 10.9-0.4 0.4-0.6-1.5-1.1-4.9-1.1h-5.6v-4.4-4.5l4.8-0.4 4.7-0.3-4.7-0.2-4.8-0.2v-4-3.9l5.8-0.4 5.7-0.3-6.7-0.2-6.8-0.2z"/><path  d="m362.8 678.5c-2.2 1.7-2.6 2.8-2.6 7.4 0 6.9 0.7 8.5 4.2 10.1 3.9 1.6 7.6 0.8 9.5-2.3 2.2-3.3 0.8-4.2-1.8-1-2 2.6-5.2 3.5-7.6 1.9-3.8-2.4-3.8-13 0-15.7 3-2.1 4.4-1.9 7.4 1.1 3.2 3.2 4 2.6 1.2-0.9-2.5-3.3-6.6-3.5-10.3-0.6z"/><path fill-rule="evenodd" d="m395.3 678.2c1.8 1.4 2.4 3.2 2.8 7.5 0.4 5.2 0.2 5.8-2.7 8.8-2.6 2.6-3.7 3.1-5.9 2.5-3.9-0.9-6.3-3.6-7-7.9-0.7-4.6 0.2-8.2 2.7-10.7 2.6-2.5 7.2-2.6 10.1-0.2zm-9 1.8c-4.4 5.6-1.7 15.4 4.3 15.4 3.8 0 5.7-3 5.7-8.8 0-4-0.5-5.6-2.2-7.2-2.9-2.7-5.2-2.5-7.8 0.6z"/><path  d="m420.1 677.4c-3.7 2.2-4.7 13-1.5 16.9 3.7 4.6 12.7 2.6 12.7-2.9q-0.2-1.3-2.1 1.2c-4.1 5.7-9.9 2.9-10.7-5-0.4-4.4-0.1-5.4 2.1-7.6 3.3-3.3 5.2-3.3 8.2 0 1.7 1.8 2.5 2.2 2.5 1.2 0-3.8-7-6.2-11.2-3.8z"/><path fill-rule="evenodd" d="m451.3 678.2c1.8 1.4 2.4 3.2 2.8 7.4 0.4 4.7 0.1 5.8-2 8.3-4.8 5.6-12.2 3-13.5-4.8-0.7-4.6 0.2-8.2 2.7-10.7 2.5-2.5 7.1-2.6 10-0.2zm-8.8 1.5c-3 3.1-3.1 10.8-0.2 13.7 2.5 2.6 6.2 2.7 8.3 0.2 2.6-2.9 2.3-11.6-0.5-14.2-2.8-2.6-4.9-2.5-7.6 0.3z"/><path  d="m463.3 696.5c-0.6 0-1-4.5-1-10.1 0-5.5 0.4-10 1-10 0.6 0 1 4.5 1 10 0 5.6-0.4 10.1-1 10.1z"/><path  d="m472.3 686.4c0 6 0.4 10.1 1 10.1 0.6 0 1-2.3 1-5v-5l5.3-0.4 5.2-0.3-5.3-0.2-5.3-0.2 0.3-3.8 0.3-3.7 5.5-0.6 5.5-0.6-6.7-0.1-6.8-0.2z"/><path  d="m492.3 686.4c0 6 0.4 10.1 1 10.1 0.6 0 1-2.3 1-5v-5l5.3-0.4 5.2-0.3-5.2-0.2-5.3-0.2v-4-3.9l5.8-0.4 5.7-0.3-6.7-0.2-6.8-0.2z"/><path  d="m511.3 684.7c0 6.8 0.3 8.7 1.8 9.9 2.7 2.4 4.9 2.9 8.1 1.8 3.8-1.4 4.8-4.6 4-13.5l-0.5-7-0.3 6.5c-0.2 3.6-0.3 6.9-0.2 7.4 0.4 1.8-3 5.6-5 5.6-5.1 0-5.9-1.5-5.9-10.5 0-5-0.4-8.5-1-8.5-0.6 0-1 3.4-1 8.3z"/><path fill-rule="evenodd" d="m534.3 676.4h4.7c5.5 0 8.4 2 8.4 5.8 0 1.4-0.8 3.4-1.7 4.4-1.5 1.7-1.5 2.1 0.6 5.8 1.2 2.2 1.8 4.1 1.2 4.1-0.5 0-2-1.9-3.2-4.1-1.8-3.2-2.8-4-5.2-4-2.6 0-2.8 0.3-2.8 4 0 2.2-0.4 4.1-1 4.1-0.6 0-1-4.1-1-10.1zm4.4 1c-2.2 0-2.4 0.4-2.4 4.5v4.6h4c3 0 4.3-0.5 5.1-2.1 1.2-2.3 0-5.4-2.6-6.4-0.8-0.3-2.8-0.6-4.1-0.6z"/><path  d="m555.6 686.6l0.3 10.4 4.7 0.3c2.6 0.2 5.6-0.2 6.5-0.7 1.4-0.8 0.5-1.1-3.9-1.2h-5.8v-4.4-4.5l4.8-0.4 4.7-0.3-4.7-0.2-4.8-0.2v-4-3.9l5.8-0.4 5.7-0.3-6.8-0.2-6.8-0.2z"/><path  d="m405.6 688.1c0.9 0.2 2.5 0.2 3.5 0 0.9-0.3 0.1-0.5-1.8-0.5-1.9 0-2.7 0.2-1.7 0.5z"/></svg>